<?xml version="1.0" encoding="utf-8"?>
<!-- Generator: Adobe Illustrator 19.1.0, SVG Export Plug-In . SVG Version: 6.00 Build 0)  -->
<svg version="1.1" id="Layer_1" xmlns="http://www.w3.org/2000/svg" xmlns:xlink="http://www.w3.org/1999/xlink" x="0px" y="0px"
	 viewBox="0 0 50 50" style="enable-background:new 0 0 50 50;" xml:space="preserve">
<g fill="none" stroke="inherit" stroke-width="2.5" stroke-miterlimit="10">
	<path d="M43.4,20.8C42.2,27.2,39,33.1,34,37.3c-8.6,7.3-20.8,8.7-30.8,3.6c-0.1,0-0.2-0.1-0.2-0.1l0,0
		c-1.1-0.6-1.8-1.6-1.8-2.9c-0.1-1.9,1.4-3.5,3.2-3.6C11,34,17.5,32,23.2,28.5c4.7-2.8,8.8-6.6,12-11.1c0.6-0.8,1.1-1.6,1.7-2.5
		C39.3,11,42.1,6,42.1,6l6.4,3.6C42.8,17.6,44.1,17,43.4,20.8z"/>
	<line x1="36.3" y1="15.8" x2="43.7" y2="18.6"/>
	<path d="M1.1,37.9c16.2,0.7,29.2,1.8,39.3-20.6"/>
</g>
</svg>
