<?xml version="1.0" encoding="utf-8"?>
<!-- Generator: Adobe Illustrator 19.1.0, SVG Export Plug-In . SVG Version: 6.00 Build 0)  -->
<svg version="1.1" id="Layer_1" xmlns="http://www.w3.org/2000/svg" xmlns:xlink="http://www.w3.org/1999/xlink" x="0px" y="0px"
	 viewBox="0 0 50 50" style="enable-background:new 0 0 50 50;" xml:space="preserve">
<g fill="none" stroke="currentColor" stroke-width="2.5" stroke-miterlimit="10">
  <line x1="46.5" y1="3.5" x2="42.4" y2="7.6"/>
  <circle cx="24.8" cy="25.2" r="5.3"/>
  <circle cx="35" cy="15" r="5.3"/>
  <path d="M45.5,15c0-5.7-4.7-10.4-10.4-10.4c-5.7,0-10.3,4.6-10.4,10.2C19,14.9,14.5,19.4,14.4,25C11.8,25,9.2,26,7.3,28
    c-4.1,4.1-4.8,14.7-2.4,17.1c2.4,2.4,13,1.7,17.1-2.4c2-2,3-4.6,3-7.2c5.6-0.1,10.1-4.6,10.2-10.2C40.9,25.3,45.5,20.6,45.5,15z"/>
  <circle cx="14.6" cy="35.4" r="5.3"/>
</g>
</svg>
