<?xml version="1.0" encoding="utf-8"?>
<!-- Generator: Adobe Illustrator 19.1.0, SVG Export Plug-In . SVG Version: 6.00 Build 0)  -->
<svg version="1.1" id="Layer_1" xmlns="http://www.w3.org/2000/svg" xmlns:xlink="http://www.w3.org/1999/xlink" x="0px" y="0px"
	 viewBox="0 0 64 50" style="enable-background:new 0 0 64 50;" xml:space="preserve">
<g fill="none" stroke="inherit" stroke-width="2.5" stroke-miterlimit="10">
	<path d="M26,33.8c-1.1,2.7-3.8,4.6-7,4.6c-1.6,0-3-0.5-4.2-1.3"/>
	<line x1="16.4" y1="38" x2="16.4" y2="40.9"/>
	<line x1="21.8" y1="37.9" x2="21.8" y2="40.9"/>
	<line x1="6" y1="19.2" x2="1.8" y2="35.3"/>
	<path d="M18.5,30c0,1.4-0.5,2.8-1.3,4.1l0,0"/>
	<path d="M61.3,15.3l-6.2-6.2C53,7,49.5,7,47.4,9.1l-6-0.3l-0.6,0.7l1.8,3.5H13.8c-4.4,0-8,3.6-8,8v27.7h4.5l0.9-9.5
		c2.3-1.1,4.7-2.9,6.1-5.2H39l1.1,14.7h4.5v-13c1.9-1.1,3.5-2.6,4.7-4.3c1.2-1.8,2-3.8,2.4-5.9l0.6-3.8h6.4c1.2,0,2.3-0.7,2.7-1.8
		l0.6-1.5C62.4,17.3,62.1,16.1,61.3,15.3z"/>
	<line x1="48.3" y1="8.4" x2="48.3" y2="2.5"/>
	<line x1="53.9" y1="8.4" x2="53.9" y2="2.5"/>
</g>
</svg>
