<?xml version="1.0" encoding="utf-8"?><svg version="1.1" id="Layer_1" xmlns="http://www.w3.org/2000/svg" xmlns:xlink="http://www.w3.org/1999/xlink" x="0px" y="0px" viewBox="0 0 122.27 122.88" style="enable-background:new 0 0 122.27 122.88" xml:space="preserve"><g><path d="M92.81,45.88l28.44,28.44c0.68,0.68,1.02,1.57,1.02,2.46c0,0.89-0.34,1.78-1.02,2.46l-42.63,42.63 c-0.06,0.06-0.13,0.12-0.2,0.18c-0.65,0.56-1.45,0.84-2.26,0.84c-0.89,0-1.78-0.34-2.46-1.02L45.34,93.49l-0.63,1.73 c-0.42,1.16-1.71,1.77-2.87,1.34c-0.32-0.12-0.6-0.3-0.82-0.52l0,0L28.02,83.06c-0.88-0.88-0.88-2.3,0-3.18l51.86-51.86 c0.88-0.88,2.3-0.88,3.18,0l13.2,13.2c0.88,0.88,0.88,2.3,0,3.18c-0.28,0.28-0.62,0.47-0.98,0.57L92.81,45.88L92.81,45.88z M47.03,88.83l29.13,29.13l41.18-41.18l-29.2-29.2l-11.16,4.08l-5.17,18.43c-0.22,0.77-0.81,1.33-1.52,1.54l0,0l-19.07,5.69 L47.03,88.83L47.03,88.83z M0.66,44.67L44.67,0.66c0.88-0.88,2.3-0.88,3.18,0l31.28,31.28c0.88,0.88,0.88,2.3,0,3.18L35.12,79.14 c-0.88,0.88-2.3,0.88-3.18,0L0.66,47.85C-0.22,46.98-0.22,45.55,0.66,44.67L0.66,44.67z M46.26,5.43L5.43,46.26l28.1,28.1 l40.84-40.84L46.26,5.43L46.26,5.43z M32.78,16.51c-0.88-0.88-0.88-2.3,0-3.18c0.88-0.88,2.3-0.88,3.18,0l30.5,30.5 c0.88,0.88,0.88,2.3,0,3.18c-0.88,0.88-2.3,0.88-3.18,0L32.78,16.51L32.78,16.51z M16,60.01c-0.88,0.88-2.3,0.88-3.18,0 c-0.88-0.88-0.88-2.3,0-3.18l44.02-44.02c0.88-0.88,2.3-0.88,3.18,0c0.88,0.88,0.88,2.3,0,3.18L16,60.01L16,60.01z M23.28,26.46 c-0.88-0.88-0.88-2.3,0-3.18c0.88-0.88,2.3-0.88,3.18,0l30.61,30.61c0.88,0.88,0.88,2.3,0,3.18c-0.88,0.88-2.3,0.88-3.18,0 L23.28,26.46L23.28,26.46z M28,70.16c-0.88,0.88-2.3,0.88-3.18,0c-0.88-0.88-0.88-2.3,0-3.18l42.24-42.24 c0.88-0.88,2.3-0.88,3.18,0c0.88,0.88,0.88,2.3,0,3.18L28,70.16L28,70.16z M13.25,35.87c-0.88-0.88-0.88-2.3,0-3.18 c0.88-0.88,2.3-0.88,3.18,0l30.85,30.85c0.88,0.88,0.88,2.3,0,3.18c-0.88,0.88-2.3,0.88-3.18,0L13.25,35.87L13.25,35.87z"/></g></svg>