<?xml version="1.0" encoding="UTF-8"?>
<svg width="1200pt" height="1200pt" version="1.1" viewBox="0 0 1200 1200" xmlns="http://www.w3.org/2000/svg" fill="currentColor" stroke="currentColor">
 <path d="m857.77 124.36-14.387-71.789c-1.7578-8.7617-9.4453-15.07-18.383-15.07h-75c-8.9375 0-16.625 6.3086-18.383 15.07l-14.336 71.535c-41.758 13.75-81.809 39.785-117.28 76.434-35.496-36.672-75.57-62.719-117.28-76.441l-14.336-71.527c-1.7578-8.7617-9.4453-15.07-18.383-15.07h-75c-8.9375 0-16.625 6.3086-18.383 15.07l-14.391 71.801c-155.47 50.676-267.23 263.34-267.23 513.13 0 392.26 300 512.29 328.88 522.9 0.20312 0.10547 0.44531 0.0625 0.65234 0.15625 2.5391 1.2031 5.2344 1.9414 7.9727 1.9414 2.6836 0 5.3242-0.71875 7.8203-1.875 0.21875-0.10156 0.47656-0.054688 0.69141-0.16406 14.465-5.1758 99.066-37.973 178.99-121.16 79.949 83.188 164.53 115.98 178.98 121.16 2.6562 1.3672 5.5859 2.043 8.5156 2.043 2.9648 0 5.9336-0.69531 8.625-2.0977 28.875-10.609 328.88-130.64 328.88-522.9 0-249.88-111.83-462.6-267.23-513.14zm-92.406-49.359h44.273l7.9102 39.523c-9.8867-1.3477-19.922-2.0234-30.047-2.0234s-20.16 0.67578-30.047 2.0234zm-90.09 211.18c2.0469-2.3086 4.0977-4.582 6.1758-6.7695 1.7188-1.8086 3.4492-3.5664 5.1875-5.2969 2.1055-2.0938 4.2266-4.1289 6.3594-6.1016 1.7578-1.6211 3.5195-3.2148 5.2891-4.7539 2.1602-1.875 4.3398-3.6641 6.5195-5.4141 1.7656-1.4141 3.5312-2.8281 5.3086-4.1562 2.2617-1.6875 4.5312-3.2539 6.8047-4.7969 1.7188-1.168 3.4297-2.3633 5.1562-3.4492 2.4023-1.5117 4.8086-2.8594 7.2188-4.207 1.6172-0.90625 3.2344-1.875 4.8555-2.707 2.6641-1.3633 5.3281-2.5273 7.9961-3.6836 1.3672-0.59375 2.7305-1.2852 4.0977-1.8242 4.0273-1.5859 8.0469-2.9609 12.051-4.0508 18.621-5.2656 39.789-5.2539 58.008-0.13672 96.441 26.379 196.2 187.64 196.2 411.86 0 260.52-151.28 369.54-225.02 407.16-3.75-1.9062-7.832-4.0859-12.141-6.4961-1.2656-0.70703-2.6797-1.582-3.9883-2.332-3.1484-1.8125-6.3164-3.6445-9.6875-5.7227-1.7617-1.0859-3.6484-2.3594-5.4648-3.5195-3.0938-1.9805-6.1875-3.957-9.4219-6.1602-2.1211-1.4453-4.3359-3.0781-6.5117-4.625-3.0938-2.1992-6.1875-4.4023-9.3711-6.8086-2.3555-1.7812-4.7656-3.7383-7.1602-5.6328-3.1211-2.4727-6.25-4.9688-9.4219-7.6445-2.5078-2.1133-5.043-4.3828-7.5703-6.625-3.1367-2.7812-6.2812-5.6094-9.4414-8.5938-2.5977-2.4531-5.1992-5.043-7.8008-7.6367-3.1133-3.1055-6.2266-6.2852-9.332-9.5938-2.6367-2.8086-5.2617-5.7266-7.8867-8.6875-1.6094-1.8164-3.2031-3.7461-4.8047-5.6211 2.5156-4.1055 4.6836-8.4141 7.0859-12.59 3.0547-5.3047 6.1445-10.59 9.0117-16.008 3.4297-6.4727 6.5898-13.102 9.7539-19.73 2.6406-5.5312 5.3438-11.027 7.8008-16.668 2.9688-6.8164 5.6367-13.801 8.3359-20.77 2.207-5.7031 4.5078-11.348 6.5352-17.156 2.5117-7.1992 4.6953-14.578 6.9297-21.934 1.7734-5.832 3.668-11.594 5.2656-17.523 2.0625-7.6641 3.7656-15.531 5.5352-23.355 1.3242-5.8516 2.8086-11.621 3.9648-17.562 1.625-8.3281 2.8477-16.867 4.1484-25.367 0.87109-5.6797 1.9336-11.258 2.6562-17.016 1.2031-9.5625 1.9648-19.355 2.7695-29.125 0.40234-4.9062 1.0273-9.6992 1.332-14.66 0.91406-14.844 1.3984-29.895 1.3984-45.188 0-16.148-0.49609-32.203-1.4258-48.133-0.31641-5.3906-0.96094-10.676-1.3828-16.035-0.82031-10.477-1.5859-20.969-2.8008-31.305-0.74219-6.3281-1.832-12.504-2.7227-18.773-1.3125-9.2188-2.5352-18.473-4.1562-27.551-1.1719-6.5547-2.668-12.93-4-19.398-1.7695-8.5859-3.4609-17.207-5.5117-25.637-1.5938-6.5508-3.4844-12.898-5.2461-19.344-2.2109-8.0938-4.3594-16.223-6.832-24.137-2.0039-6.418-4.2773-12.617-6.4492-18.906-2.6445-7.6523-5.2422-15.324-8.1367-22.777-2.4023-6.1914-5.043-12.152-7.6133-18.195-3.0664-7.2148-6.1133-14.434-9.418-21.426-2.7852-5.8945-5.7812-11.562-8.7344-17.293-2.4375-4.7266-4.6641-9.6719-7.2148-14.281 0.62891-0.76562 1.2422-1.5781 1.875-2.3359 1.6641-1.9844 3.3555-3.8867 5.043-5.793zm-262.85 834.62c-36.18-28.18-163.31-150.94-163.31-483.3 0-264.21 72.832-454.62 144.64-483.54v378.8c0 10.355 8.3867 18.75 18.75 18.75s18.75-8.3945 18.75-18.75v-378.8c71.805 28.918 144.64 219.34 144.64 483.54 0 330.73-127.52 454.89-163.46 483.3zm-22.062-1045.8h44.273l7.9102 39.523c-6.3438-0.86328-12.828-0.98828-19.277-1.2969-3.5625-0.47266-7.1523-0.72656-10.77-0.72656s-7.207 0.25391-10.77 0.72656c-6.4492 0.30859-12.934 0.43359-19.277 1.2969zm-277.86 562.5c0-207.57 83.898-392.64 201.88-460.13-61.762 88.574-102.77 259.5-102.77 460.13 0 221.71 54.516 355.45 105.42 432.11-88.938-65.047-204.53-195.1-204.53-432.11zm395.11 432.64c51-76.578 105.77-210.41 105.77-432.64 0-200.76-41.055-371.78-102.88-460.31 26.695 15.215 52.191 36.57 75.359 63.316 3.8633 4.4297 7.6797 9.043 11.445 13.836 11.293 14.375 22.113 30.336 32.262 47.633 53.484 91.297 82.93 210.45 82.93 335.52 0 14.691-0.44141 29.152-1.3242 43.383-6.168 99.594-33.887 187.8-82.613 262.68-13.34 20.25-27.645 39-42.59 55.75-26.047 29.352-53.238 52.617-78.359 70.832zm279.91 53.457c-20.16-7.875-93.715-39.973-162.43-112.26 2.4766-2.9922 4.8242-6.293 7.2695-9.3828 2.9375-3.7148 5.8516-7.418 8.7266-11.27 1.5469-2.0664 3.1719-3.9609 4.6953-6.0625 0.875 0.97656 1.7617 1.8008 2.6367 2.7617 2.7852 3.0547 5.5664 5.8633 8.3633 8.7656 3.9688 4.1172 7.918 8.1875 11.887 12 2.9062 2.793 5.7773 5.4102 8.6719 8.0469 3.8672 3.5195 7.6953 6.9492 11.52 10.195 2.8867 2.4492 5.7188 4.7891 8.5664 7.0898 3.7734 3.043 7.4727 5.9414 11.16 8.7227 2.7656 2.0859 5.4766 4.125 8.1836 6.0703 3.6797 2.6445 7.2305 5.0977 10.777 7.4883 2.5156 1.6953 5.0117 3.4062 7.4531 4.9766 3.6016 2.3203 7.0039 4.4023 10.41 6.457 2.1406 1.293 4.3164 2.6562 6.3711 3.8477 3.6367 2.1094 6.9883 3.9375 10.324 5.7422 1.5273 0.82812 3.1641 1.7656 4.6211 2.5273 4.6172 2.418 8.9219 4.5664 12.758 6.3828 2.5273 1.1992 5.2734 1.8047 8.0195 1.8047 0.003906 0 0.011719-0.003906 0.015625-0.003906 2.7578-0.003906 5.5195-0.61328 8.0781-1.8359 59.672-28.555 254.41-145.03 254.41-444.97 0-242.12-113.8-417.93-223.68-447.98-24.574-6.9219-53.172-6.9141-78.078 0.13672-4.8359 1.3203-9.6484 2.9531-14.445 4.7812-1.625 0.61719-3.2383 1.3672-4.8594 2.043-3.1797 1.3281-6.3516 2.7148-9.5117 4.2617-1.8672 0.91406-3.7188 1.9062-5.5742 2.8984-2.9336 1.5664-5.8516 3.2148-8.7578 4.9688-1.8672 1.125-3.7266 2.2695-5.5859 3.4727-2.9609 1.918-5.8945 3.9727-8.8242 6.0859-1.707 1.2344-3.4258 2.418-5.1211 3.7148-3.5312 2.7031-7.0273 5.5898-10.5 8.5703-1.0273 0.87891-2.0664 1.668-3.0898 2.5742-4.4453 3.9375-8.8398 8.1211-13.18 12.508-1.2578 1.2695-2.4805 2.6562-3.7266 3.9648-2.4219 2.5391-4.8633 5.0234-7.2422 7.6992-0.48828-0.73828-1.0234-1.3555-1.5156-2.0898-6.7422-10.074-13.672-19.707-20.816-28.707-0.22266-0.28125-0.42969-0.61719-0.65234-0.89844 34.461-36.273 73.5-61.074 113.71-72.078 23.539-6.5938 49.176-8.2383 73.766-4.9453 8.2266 1.1094 16.359 2.7695 24.285 4.9883 143.04 38.703 250.9 245.41 250.9 480.84 0 354.95-259.35 470.23-299.98 486.1z"/>
 <path d="m787.5 431.25c31.551 0 56.25-32.941 56.25-75s-24.699-75-56.25-75-56.25 32.941-56.25 75 24.699 75 56.25 75zm0-112.5c7.6523 0 18.75 14.613 18.75 37.5s-11.098 37.5-18.75 37.5-18.75-14.613-18.75-37.5 11.098-37.5 18.75-37.5z"/>
 <path d="m900 543.75c31.551 0 56.25-32.941 56.25-75s-24.699-75-56.25-75-56.25 32.941-56.25 75 24.699 75 56.25 75zm0-112.5c7.6523 0 18.75 14.613 18.75 37.5s-11.098 37.5-18.75 37.5-18.75-14.613-18.75-37.5 11.098-37.5 18.75-37.5z"/>
 <path d="m900 712.5c-31.551 0-56.25 32.941-56.25 75s24.699 75 56.25 75 56.25-32.941 56.25-75-24.699-75-56.25-75zm0 112.5c-7.6523 0-18.75-14.613-18.75-37.5s11.098-37.5 18.75-37.5 18.75 14.613 18.75 37.5-11.098 37.5-18.75 37.5z"/>
 <path d="m787.5 825c-31.551 0-56.25 32.941-56.25 75s24.699 75 56.25 75 56.25-32.941 56.25-75-24.699-75-56.25-75zm0 112.5c-7.6523 0-18.75-14.613-18.75-37.5s11.098-37.5 18.75-37.5 18.75 14.613 18.75 37.5-11.098 37.5-18.75 37.5z"/>
 <path d="m825 712.5c31.551 0 56.25-32.941 56.25-75s-24.699-75-56.25-75-56.25 32.941-56.25 75 24.699 75 56.25 75zm0-112.5c7.6523 0 18.75 14.613 18.75 37.5s-11.098 37.5-18.75 37.5-18.75-14.613-18.75-37.5 11.098-37.5 18.75-37.5z"/>
</svg>
