<?xml version="1.0" encoding="UTF-8"?>
<svg width="128pt" height="128pt" version="1.1" viewBox="0 0 128 128" xmlns="http://www.w3.org/2000/svg" fill="currentColor" stroke="currentColor">
 <path d="m91.496 13.266-1.5352-7.6562c-0.1875-0.9375-1.0078-1.6094-1.9609-1.6094h-8c-0.95312 0-1.7734 0.67188-1.9609 1.6055l-1.5273 7.6289c-4.457 1.4688-8.7266 4.2461-12.512 8.1562-3.7852-3.9102-8.0625-6.6914-12.512-8.1523l-1.5273-7.6289c-0.1875-0.9375-1.0078-1.6094-1.9609-1.6094h-8c-0.95312 0-1.7734 0.67188-1.9609 1.6055l-1.5352 7.6602c-16.582 5.4062-28.504 28.09-28.504 54.734 0 41.84 32 54.645 35.082 55.777 0.023438 0.011718 0.046875 0.007812 0.070313 0.015625 0.26953 0.12891 0.55469 0.20703 0.84766 0.20703 0.28516 0 0.56641-0.078125 0.83594-0.19922 0.023437-0.011719 0.050781-0.007812 0.074218-0.019531 1.5391-0.55078 10.566-4.0508 19.09-12.922 8.5273 8.875 17.551 12.371 19.09 12.922 0.28516 0.14844 0.59766 0.21875 0.91016 0.21875 0.31641 0 0.63281-0.074219 0.91797-0.22266 3.082-1.1328 35.082-13.938 35.082-55.777 0-26.652-11.93-49.344-28.504-54.734zm-9.8594-5.2656h4.7227l0.84375 4.2148c-1.0547-0.14453-2.1211-0.21484-3.2031-0.21484s-2.1484 0.070312-3.207 0.21484zm-9.6094 22.527c0.21875-0.24609 0.4375-0.48828 0.66016-0.72266 0.18359-0.19141 0.36719-0.37891 0.55469-0.56641 0.22656-0.22266 0.44922-0.44141 0.67969-0.65234 0.1875-0.17188 0.375-0.34375 0.5625-0.50781 0.23047-0.19922 0.46094-0.39062 0.69531-0.57812 0.1875-0.15234 0.375-0.30078 0.56641-0.44141 0.24219-0.17969 0.48438-0.34766 0.72656-0.51172 0.18359-0.125 0.36719-0.25391 0.55078-0.36719 0.25781-0.16016 0.51172-0.30469 0.76953-0.44922 0.17188-0.097657 0.34375-0.19922 0.51953-0.28906 0.28516-0.14453 0.57031-0.26953 0.85156-0.39453 0.14453-0.0625 0.29297-0.13672 0.4375-0.19531 0.42969-0.16797 0.85938-0.31641 1.2852-0.43359 1.9883-0.5625 4.2422-0.55859 6.1875-0.015625 10.285 2.8203 20.926 20.023 20.926 43.938 0 27.789-16.137 39.418-24.004 43.43-0.39844-0.20312-0.83594-0.4375-1.293-0.69141-0.13672-0.074219-0.28516-0.16797-0.42578-0.25-0.33594-0.19141-0.67188-0.39062-1.0352-0.60938-0.1875-0.11719-0.39063-0.25-0.58203-0.375-0.32812-0.21094-0.66016-0.42188-1.0039-0.65625-0.22656-0.15234-0.46094-0.32812-0.69531-0.49219-0.32813-0.23437-0.66016-0.46875-1-0.72656-0.25-0.19141-0.50781-0.39844-0.76172-0.60156-0.33203-0.26172-0.66797-0.53125-1.0039-0.81641-0.26562-0.22656-0.53906-0.46875-0.80859-0.70703-0.33594-0.29688-0.66797-0.59766-1.0078-0.91797-0.27734-0.26172-0.55469-0.53906-0.83203-0.81641-0.33203-0.33203-0.66406-0.67188-0.99609-1.0234-0.28125-0.30078-0.5625-0.60938-0.83984-0.92578-0.17188-0.19531-0.33984-0.39844-0.51172-0.59766 0.26953-0.4375 0.5-0.89844 0.75781-1.3438 0.32422-0.56641 0.65625-1.1289 0.96094-1.707 0.36719-0.69141 0.70312-1.3984 1.0391-2.1055 0.28125-0.58984 0.57031-1.1758 0.83203-1.7773 0.31641-0.72656 0.60156-1.4727 0.89063-2.2148 0.23437-0.60937 0.48047-1.2109 0.69531-1.8281 0.26953-0.76953 0.5-1.5547 0.73828-2.3398 0.1875-0.62109 0.39062-1.2383 0.5625-1.8672 0.21875-0.81641 0.40234-1.6562 0.58984-2.4922 0.14062-0.625 0.30078-1.2383 0.42188-1.875 0.17188-0.88672 0.30469-1.8008 0.44141-2.707 0.09375-0.60547 0.20703-1.1992 0.28516-1.8164 0.12891-1.0195 0.21094-2.0664 0.29688-3.1055 0.042968-0.52344 0.10937-1.0352 0.14062-1.5625 0.097657-1.582 0.14844-3.1875 0.14844-4.8203 0-1.7227-0.054688-3.4336-0.15234-5.1328-0.035156-0.57422-0.10156-1.1367-0.14844-1.7109-0.085938-1.1172-0.16797-2.2383-0.30078-3.3398-0.078126-0.67578-0.19531-1.332-0.28906-2.0039-0.14062-0.98438-0.26953-1.9688-0.44531-2.9375-0.125-0.69922-0.28516-1.3789-0.42578-2.0703-0.1875-0.91406-0.36719-1.8359-0.58594-2.7344-0.16797-0.69922-0.37109-1.375-0.55859-2.0625-0.23438-0.86328-0.46484-1.7305-0.73047-2.5742-0.21484-0.68359-0.45703-1.3477-0.6875-2.0156-0.28125-0.81641-0.55859-1.6328-0.86719-2.4297-0.25781-0.66016-0.53906-1.2969-0.8125-1.9414-0.32812-0.76953-0.65234-1.5391-1.0039-2.2852-0.29688-0.62891-0.61719-1.2344-0.92969-1.8438-0.26172-0.50391-0.49609-1.0312-0.76953-1.5234 0.066406-0.082031 0.13281-0.16797 0.19922-0.25 0.17578-0.21094 0.35547-0.41406 0.53516-0.61719zm-28.035 89.023c-3.8594-3.0039-17.422-16.102-17.422-51.551 0-28.184 7.7695-48.492 15.43-51.578v40.406c0 1.1055 0.89453 2 2 2s2-0.89453 2-2v-40.406c7.6602 3.0859 15.43 23.395 15.43 51.578 0 35.277-13.605 48.523-17.438 51.551zm-2.3555-111.55h4.7227l0.84375 4.2148c-0.67578-0.09375-1.3672-0.10547-2.0547-0.13672-0.37891-0.050781-0.76172-0.078125-1.1484-0.078125s-0.76953 0.027344-1.1484 0.078125c-0.6875 0.03125-1.3789 0.046875-2.0547 0.13672zm-29.637 60c0-22.141 8.9492-41.883 21.535-49.082-6.5898 9.4492-10.965 27.68-10.965 49.082 0 23.648 5.8164 37.914 11.246 46.09-9.4883-6.9375-21.816-20.809-21.816-46.09zm42.145 46.148c5.4414-8.168 11.285-22.445 11.285-46.148 0-21.414-4.3789-39.656-10.973-49.098 2.8477 1.6211 5.5664 3.9023 8.0391 6.7539 0.41406 0.47266 0.82031 0.96484 1.2227 1.4766 1.2031 1.5352 2.3594 3.2344 3.4414 5.082 5.6992 9.7344 8.8398 22.445 8.8398 35.785 0 1.5664-0.046875 3.1094-0.14062 4.6289-0.65625 10.625-3.6133 20.031-8.8125 28.02-1.4219 2.1602-2.9492 4.1602-4.543 5.9453-2.7773 3.1289-5.6797 5.6133-8.3594 7.5547zm29.859 5.7031c-2.1484-0.83984-9.9961-4.2617-17.324-11.977 0.26562-0.32031 0.51562-0.67188 0.77344-1 0.3125-0.39453 0.625-0.79297 0.92969-1.2031 0.16406-0.21875 0.33984-0.42188 0.5-0.64844 0.09375 0.10547 0.1875 0.19141 0.28125 0.29297 0.29688 0.32422 0.59375 0.625 0.89063 0.93359 0.42187 0.4375 0.84375 0.875 1.2695 1.2812 0.30859 0.29688 0.61719 0.57812 0.92578 0.85938 0.41406 0.375 0.82031 0.74219 1.2305 1.0859 0.30859 0.26172 0.60938 0.51172 0.91406 0.75781 0.40234 0.32422 0.79688 0.63281 1.1914 0.92969 0.29297 0.22266 0.58594 0.44141 0.87109 0.64844 0.39062 0.28125 0.76953 0.54297 1.1484 0.79688 0.26953 0.17969 0.53516 0.36328 0.79297 0.53125 0.38281 0.24609 0.74609 0.46875 1.1094 0.6875 0.22656 0.13672 0.46094 0.28516 0.67969 0.41016 0.38672 0.22656 0.74609 0.42188 1.1016 0.61328 0.16406 0.089844 0.33594 0.1875 0.49219 0.26953 0.49219 0.25781 0.95312 0.48828 1.3594 0.67969 0.27344 0.13281 0.56641 0.19922 0.85938 0.19922s0.58984-0.066406 0.86328-0.19531c6.3633-3.0469 27.137-15.469 27.137-47.465 0-25.824-12.137-44.578-23.859-47.785-2.6211-0.73828-5.6719-0.73828-8.3281 0.015624-0.51562 0.14063-1.0273 0.31641-1.5391 0.51172-0.17188 0.066407-0.34375 0.14453-0.51953 0.21875-0.33984 0.14062-0.67578 0.28906-1.0156 0.45312-0.19922 0.097656-0.39844 0.20312-0.59375 0.30859-0.3125 0.16797-0.625 0.34375-0.93359 0.53125-0.19922 0.12109-0.39844 0.24219-0.59766 0.37109-0.31641 0.20312-0.62891 0.42578-0.94141 0.64844-0.18359 0.13281-0.36719 0.25781-0.54688 0.39453-0.375 0.28906-0.75 0.59766-1.1211 0.91406-0.10938 0.09375-0.21875 0.17969-0.32812 0.27344-0.47266 0.42188-0.94141 0.86719-1.4062 1.3359-0.13281 0.13672-0.26562 0.28516-0.39844 0.42188-0.25781 0.26953-0.51953 0.53516-0.77344 0.82031-0.050781-0.078126-0.10938-0.14453-0.16016-0.22266-0.71875-1.0742-1.457-2.1016-2.2188-3.0625-0.023438-0.03125-0.046875-0.066406-0.070312-0.097656 3.6758-3.8672 7.8398-6.5156 12.129-7.6875 2.5117-0.70312 5.2461-0.87891 7.8672-0.52734 0.87891 0.11719 1.7461 0.29688 2.5898 0.53125 15.258 4.1328 26.766 26.18 26.766 51.293 0 37.863-27.664 50.16-31.996 51.852z"/>
 <path d="m84 46c3.3672 0 6-3.5117 6-8s-2.6328-8-6-8-6 3.5117-6 8 2.6328 8 6 8zm0-12c0.81641 0 2 1.5586 2 4s-1.1836 4-2 4-2-1.5586-2-4 1.1836-4 2-4z"/>
 <path d="m96 58c3.3672 0 6-3.5117 6-8s-2.6328-8-6-8-6 3.5117-6 8 2.6328 8 6 8zm0-12c0.81641 0 2 1.5586 2 4s-1.1836 4-2 4-2-1.5586-2-4 1.1836-4 2-4z"/>
 <path d="m96 76c-3.3672 0-6 3.5117-6 8s2.6328 8 6 8 6-3.5117 6-8-2.6328-8-6-8zm0 12c-0.81641 0-2-1.5586-2-4s1.1836-4 2-4 2 1.5586 2 4-1.1836 4-2 4z"/>
 <path d="m84 88c-3.3672 0-6 3.5117-6 8s2.6328 8 6 8 6-3.5117 6-8-2.6328-8-6-8zm0 12c-0.81641 0-2-1.5586-2-4s1.1836-4 2-4 2 1.5586 2 4-1.1836 4-2 4z"/>
 <path d="m88 76c3.3672 0 6-3.5117 6-8s-2.6328-8-6-8-6 3.5117-6 8 2.6328 8 6 8zm0-12c0.81641 0 2 1.5586 2 4s-1.1836 4-2 4-2-1.5586-2-4 1.1836-4 2-4z"/>
</svg>
