<?xml version="1.0" encoding="utf-8"?>
<!-- Generator: Adobe Illustrator 19.1.0, SVG Export Plug-In . SVG Version: 6.00 Build 0)  -->
<svg version="1.1" id="Layer_1" xmlns="http://www.w3.org/2000/svg" xmlns:xlink="http://www.w3.org/1999/xlink" x="0px" y="0px"
	 viewBox="0 0 50 50" style="enable-background:new 0 0 50 50;" xml:space="preserve">
<g fill="none" stroke="inherit" stroke-width="2.5" stroke-miterlimit="10">
	<path d="M25,17.1c-7.3-5.4-16.2-6.3-19.8-2.7c-4.1,4.1-2.3,15.2,5.3,22.8c4.4,4.4,11.4,4.8,16.3,1.1"/>
	<path d="M9.6,29.5C7,25,6.5,20.5,7.3,18.3"/>
	<path d="M34.6,41.1c6.8,0,12.4-5.5,12.4-12.4C47,18,40.5,8.9,34.6,8.9S22.2,18,22.2,28.8
		C22.3,35.6,27.8,41.1,34.6,41.1z"/>
	<path d="M27,22.8c1.3-5,4.2-8.5,6.4-9.6"/>
</g>
</svg>
