<?xml version="1.0" encoding="UTF-8"?>
<svg fill="currentColor" width="1200pt" height="1200pt" version="1.1" viewBox="0 0 1200 1200" xmlns="http://www.w3.org/2000/svg">
 <path d="m1106.2 61.312c-20.754-17.965-47.574-27.348-75-26.25-32.082 0.92188-63.781 7.2617-93.75 18.75-17.25 6.1875-34.5 13.312-51.188 21-24.188 11.25-47.812 23.812-70.875 37.5-15.562 9-30.938 18.75-46.312 28.125-36.141 22.352-71.008 46.703-104.44 72.938l-18.75 14.812c-20.625 16.125-41.062 32.625-61.125 49.312s-43.5 37.5-65.625 56.25c2.6133-40.43 1.8594-81.008-2.25-121.31-1.6875-13.125-2.625-33.938-12.75-39.562-4.2266-2.3594-9.1992-2.9961-13.883-1.7734-4.6836 1.2227-8.7109 4.2109-11.242 8.3359-82.5 139.31-189 259.88-291.56 369.75-93.75 100.12-136.88 206.25-124.88 307.31 7.75 52.203 30.332 101.08 65.062 140.81l-44.062 47.062c-3.3047 3.6289-5.0547 8.4062-4.875 13.312 0.21875 4.8398 2.3008 9.4102 5.8125 12.75l96.938 89.625c3.4375 3.125 7.9141 4.8633 12.562 4.875 5.1328-0.066406 10.012-2.2383 13.5-6l41.625-44.812c17.441 10.645 36.41 18.547 56.25 23.438 18.742 5.2031 38.113 7.793 57.562 7.6875 65.418-2.5664 128.49-25.07 180.75-64.5 36-24.75 72.188-49.125 109.31-72 37.957-23.789 77.137-45.57 117.38-65.25 13.5-6.75 27.375-13.125 41.25-18.75 10.117-3.0352 19.863-7.1875 29.062-12.375 3.7695-2.125 6.6875-5.4922 8.2617-9.5234 1.5703-4.0312 1.6992-8.4844 0.36328-12.602-3.375-9.375-13.875-12.562-22.688-14.438l-54.75-11.438c-9.043-1.9688-18.18-3.4727-27.375-4.5l-18.75-2.0625c146.81-162.19 267.19-329.44 340.69-473.81 81.375-160.5 96-271.5 39.75-322.69zm-14.062 155.81-56.25-51.938 56.25-61.125c14.062 24.562 14.062 63.375 0.75 113.06zm-60.938-145.31c12.359-0.29297 24.637 2.0703 36 6.9375l-56.25 61.5-56.25-52.688c24.512-9.2461 50.328-14.562 76.5-15.75zm-543.75 763.31-91.875-83.625c6.9375-33 14.062-65.062 23.25-96.75l127.12 117.38c-20.625 22.75-40.562 43.75-59.812 63zm8.25 57.562c-28.5 4.3125-56.25 6.1875-86.438 7.875l-43.5 2.8125h-8.625s0-1.6875 0.9375-2.625c2.0625-4.6875 3.75-9.375 5.4375-14.062 3.75-9.9375 6.9375-18.75 9.75-29.812 5.625-21.562 10.312-42.938 14.812-64.125zm-64.5-276.38c2.8125-7.5 5.625-15 8.8125-22.5l7.6875-18.75 9.5625-22.688 1.875-4.5c2.625-6 5.0625-12 7.5-18.75l41.625 38.438c-19.875 21.938-39.188 43.688-57.75 64.875zm141.38 180.75 69.188 63.75c-5.25 0-10.312 1.875-15.375 2.8125l-12.188 2.0625c-21.27 3.4883-42.262 8.5039-62.812 15l-12.75 3.1875-25.875-23.812c19.688-19.875 39.75-40.875 60.188-63zm-2.0625-52.125-93.75-85.875c18.75-21.188 37.5-42.938 57.75-64.875l93.75 86.438c-18.875 22.125-38 43.562-57.375 64.312zm-10.5-177.94c19.375-21.375 38.875-42.75 58.5-64.125l93.75 85.875-53.062 59.062-5.0625 5.4375zm83.438-91.125c13.875-15 27.562-30 41.438-44.812l17.625-18.75 92.25 85.125c-5.8125 6.5625-11.25 12.75-17.438 18.75l-40.688 46.312zm84.75-90.188c22.125-22.688 43.125-42.938 62.625-60.75l83.438 77.062c-16.125 21.125-34.5 43.688-55.125 67.688zm90.562-85.688c25.688-22.125 48.562-39.938 69-54.375l56.25 52.125c-12.375 21.75-27.938 46.5-47.625 75zm99.938-75c21.98-14.387 45.504-26.273 70.125-35.438-5.9297 26.027-15.062 51.219-27.188 75zm-4.3125-122.25 58.125 53.625c-28.688 11.258-56.043 25.66-81.562 42.938l-58.5-54.562c26.582-15.672 54.07-29.758 82.312-42.188zm-115.12 61.875 60.562 56.25c-20.625 15-43.5 33-68.625 54.75l-66.188-61.125c25.75-18 50.625-34.688 74.625-50.062zm-104.62 71.625 69.375 63.75c-18.75 18.75-40.5 37.5-62.625 60.562l-75-70.125c22.5-19.312 45.75-37.312 68.625-54.375zm-98.25 78 79.125 73.125-17.625 18.75c-13.875 14.812-27.562 29.812-41.438 44.812l-85.688-79.312c22.25-20 44.25-39.188 66-57.562zm-112.5 170.25 3.75-10.688 4.3125-12.75 3.375-11.438c1.3125-4.125 2.625-8.4375 3.75-12.562l2.8125-11.625c1.125-4.3125 2.25-8.4375 3.1875-12.75s1.5-7.875 2.25-11.812l83.625 77.25c-19 21.25-38.188 42.562-57.562 63.938l-52.125-48c1.3125-3.1875 2.4375-6.5625 3.5625-9.75zm-385.31 367.5c-13.5-112.5 55.125-213.56 115.12-277.5 98.219-100.57 186.96-209.97 265.12-326.81 3.8867 40.008 3.2578 80.324-1.875 120.19-6.6406 41.52-17.77 82.195-33.188 121.31-27.562 73.312-60 145.12-77.438 223.31-10.125 45.188-18.75 90.75-30 135.56-6.3672 24.766-16.082 48.547-28.875 70.688-10.148 18.383-22.766 35.289-37.5 50.25-17.625 17.859-38.418 32.293-61.312 42.562-3.7812-50.574-0.5625-101.43 9.5625-151.12 14.594-60.855 37.23-119.5 67.312-174.38l8.25-16.5c16.125-31.688 32.625-64.312 47.812-97.125 1.4297-5.6797 0.12109-11.703-3.5352-16.277-3.6562-4.5742-9.2422-7.1797-15.098-7.0391-5.8555 0.14062-11.309 3.0078-14.742 7.7539-15 32.25-31.312 64.688-47.25 96l-8.25 16.688c-31.613 57.688-55.324 119.37-70.5 183.38-9.3008 45.316-13.203 91.578-11.625 137.81l-4.6875-5.0625c-35.902-36.398-59.449-83.168-67.312-133.69zm93.75 268.5-69.375-64.5 29.062-31.5c15 15.75 25.312 25.875 26.625 27.188s15.562 15.938 41.812 39.188zm557.62-223.88c7.6875 1.125 15 3.375 22.5 4.875-87.41 42.832-171.02 93.012-249.94 150-75 51-144.94 68.812-207.56 51.562-20.488-4.6094-39.695-13.703-56.25-26.625-7.875-6.5625-14.625-12.75-20.812-18.75 66.375-1.3125 189.75-9.75 276.94-49.5 4.5273-3.4883 7.2188-8.8477 7.3086-14.562 0.085937-5.7148-2.4336-11.156-6.8516-14.781-4.4141-3.6289-10.246-5.043-15.832-3.8438-69.375 31.5-166.69 41.812-233.25 45 10.383-8.0195 20.16-16.793 29.25-26.25 14.332-14.754 26.918-31.113 37.5-48.75l1.5-2.25 7.3125-1.125c22.688-2.4375 45.375-3.75 67.5-5.0625 45.23-0.86328 90.262-6.1992 134.44-15.938l17.438-4.3125c40.629-12.012 82.43-19.617 124.69-22.688 21.422-1.0664 42.895-0.058594 64.125 3zm-66.375-47.625-85.5-78.938 58.125-64.5 85.125 78.75c-18.75 21.938-38.062 43.312-57.938 64.688zm81.938-92.625-84.562-78.188 5.4375-5.8125 52.688-58.688 81.562 75c-17.875 22.5-36.312 45.062-55.312 67.688zm78.188-96.375-79.5-73.5 41.062-45c6-6.375 11.812-12.625 17.438-18.75l73.125 67.5c-17.25 22.875-34.5 46.125-52.125 69.75zm73.5-100.5-70.125-64.688c20.812-24 39-46.5 55.125-67.688l63.75 58.875c-15.5 24.25-31.938 48.75-49.312 73.5zm68.438-105.38-61.312-56.25c18.75-27 35.25-51.75 48.188-73.875l56.25 52.5c-13.25 25.125-27.812 51-43.688 77.625zm5.0625-163.69c14.539-27.66 25.801-56.918 33.562-87.188l57.375 53.062c-10.059 29.168-21.828 57.719-35.25 85.5z"/>
</svg>
