<?xml version="1.0" encoding="utf-8"?>
<!-- Generator: Adobe Illustrator 19.1.0, SVG Export Plug-In . SVG Version: 6.00 Build 0)  -->
<svg version="1.1" id="Layer_1" xmlns="http://www.w3.org/2000/svg" xmlns:xlink="http://www.w3.org/1999/xlink" x="0px" y="0px"
	 viewBox="0 0 50 50" style="enable-background:new 0 0 50 50;" xml:space="preserve">
<g fill="none" stroke="currentColor" stroke-width="2.5" stroke-miterlimit="10">
	<path d="M35.8,22.6c-3.1-2.9-6.9-4.5-10.8-4.9c0.1-0.1,0.2-0.2,0.3-0.3c4.2-4.6,11.4-4.8,15.9-0.6
		c4.6,4.2,4.8,11.4,0.6,15.9c-0.1,0.1-0.2,0.2-0.3,0.3C40.8,29.1,38.9,25.4,35.8,22.6z"/>
	<path d="M14.2,22.6c3.1-2.9,6.9-4.5,10.8-4.9c-0.1-0.1-0.2-0.2-0.3-0.3c-4.2-4.6-11.4-4.8-15.9-0.6
		C4.3,21,4,28.1,8.2,32.6c0.1,0.1,0.2,0.2,0.3,0.3C9.3,29.1,11.1,25.4,14.2,22.6z"/>
	<path d="M25,9.8c1.3-3.7,4.2-6.8,8.3-7.9c6.6-1.9,13.4,1.9,15.3,8.4c0,0.2,0.1,0.3,0.1,0.5c-4-1.5-8.6-1.8-13-0.5
		s-8.1,4-10.7,7.4"/>
	<path d="M14.3,10.3c4.4,1.3,8,3.8,10.6,7.2c0.2,0,0.1,0,0.3,0c2-6.6-1.8-13.6-8.4-15.5C10-0.1,3,3.9,1.2,10.8
		C5.3,9.3,9.8,9,14.3,10.3z"/>
	<path d="M27,18c0,0,2,22.8,2,30.7h-8.2c0-7.9,2-30.7,2-30.7"/>
	<line x1="22.5" y1="23.1" x2="27.5" y2="23.1"/>
	<line x1="22.1" y1="28.2" x2="27.9" y2="28.2"/>
	<line x1="21.7" y1="33.3" x2="28.3" y2="33.3"/>
	<line x1="21.4" y1="38.4" x2="28.6" y2="38.4"/>
	<line x1="21.1" y1="43.5" x2="28.9" y2="43.5"/>
</g>
</svg>
