<?xml version="1.0" standalone="no"?>
<!DOCTYPE svg PUBLIC "-//W3C//DTD SVG 20010904//EN"
 "http://www.w3.org/TR/2001/REC-SVG-20010904/DTD/svg10.dtd">
<svg version="1.0" xmlns="http://www.w3.org/2000/svg"
 width="244.000000pt" height="246.000000pt" viewBox="0 0 244.000000 246.000000"
 preserveAspectRatio="xMidYMid meet">

<g transform="translate(0.000000,246.000000) scale(0.100000,-0.100000)"
fill="inherit" stroke="none">
  <path d="M363 2445 c-84 -23 -134 -53 -198 -119 -110 -112 -158 -250 -159
  -451 -1 -98 4 -133 23 -195 45 -145 116 -256 276 -430 141 -153 178 -239 234
  -536 42 -222 95 -325 251 -489 132 -138 156 -159 205 -181 193 -89 443 -28
  637 154 148 139 222 271 264 468 59 281 67 307 105 384 29 57 69 112 144 195
  227 251 289 384 289 615 -1 191 -55 341 -164 451 -63 63 -112 92 -197 114
  -224 58 -509 -76 -664 -313 -64 -98 -86 -160 -119 -338 -30 -162 -45 -221 -60
  -244 -14 -22 -39 46 -62 170 -37 204 -57 275 -104 370 -80 162 -249 309 -414
  361 -86 27 -219 34 -287 14z m269 -109 c137 -48 271 -163 338 -288 45 -84 68
  -157 90 -292 25 -149 43 -213 81 -288 l29 -57 -47 -58 c-25 -32 -47 -59 -49
  -61 -1 -2 -24 13 -51 32 -70 50 -138 64 -197 42 -89 -34 -129 -111 -141 -276
  -6 -76 -4 -94 20 -165 14 -44 33 -90 40 -102 12 -18 12 -33 -1 -104 -10 -50
  -14 -118 -12 -175 2 -71 0 -90 -9 -82 -23 19 -71 164 -93 278 -54 291 -101
  402 -232 548 -179 201 -221 260 -266 380 -24 60 -26 81 -27 207 0 121 3 149
  23 208 45 128 130 225 229 262 63 23 197 18 275 -9z m1474 -25 c146 -69 233
  -238 234 -453 0 -110 -15 -169 -71 -283 -47 -98 -62 -117 -242 -322 -119 -135
  -148 -201 -201 -461 -19 -92 -44 -194 -56 -227 -55 -160 -203 -330 -348 -403
  -285 -142 -520 -37 -584 261 -6 28 -8 107 -6 181 4 115 8 143 37 226 44 131
  78 184 188 303 52 56 122 137 154 181 105 138 123 185 179 480 11 60 31 132
  42 160 99 234 306 385 528 386 73 0 93 -4 146 -29z m-1137 -1032 c71 -36 75
  -21 -34 -139 -33 -36 -78 -99 -99 -140 -39 -74 -40 -74 -48 -45 -21 78 -21
  171 1 244 36 119 71 135 180 80z"/>
  <path d="M405 2242 c-94 -44 -147 -136 -166 -286 -33 -251 76 -514 246 -596
  109 -53 252 -14 366 99 85 86 104 134 104 261 0 97 -2 110 -32 172 -99 208
  -266 354 -418 365 -45 3 -70 -1 -100 -15z m174 -97 c93 -44 184 -139 247 -259
  31 -59 38 -83 42 -146 6 -97 -19 -160 -88 -224 -94 -88 -191 -110 -275 -63
  -122 69 -200 285 -177 486 24 199 111 271 251 206z"/>
  <path d="M1793 2094 c-18 -8 -70 -94 -83 -140 -16 -54 -1 -87 38 -82 22 2 32
  14 57 65 17 34 36 68 43 75 15 15 16 60 0 76 -12 12 -33 14 -55 6z"/>
  <path d="M2085 1916 c-35 -35 -75 -121 -75 -161 0 -28 5 -38 23 -44 30 -12 58
  7 73 52 7 20 24 53 38 74 32 46 33 67 4 87 -29 21 -35 20 -63 -8z"/>
  <path d="M1566 1699 c-56 -66 -82 -146 -59 -178 16 -23 55 -28 70 -8 6 6 15
  28 22 47 6 19 23 52 36 72 30 45 31 60 7 81 -27 25 -47 21 -76 -14z"/>
  <path d="M1866 1527 c-31 -41 -65 -115 -66 -143 0 -11 9 -29 20 -39 29 -26 64
  -8 80 42 7 21 23 55 36 75 27 41 30 68 12 86 -22 22 -56 13 -82 -21z"/>
  <path d="M1317 1248 c-34 -46 -54 -88 -62 -130 -6 -32 -4 -38 19 -53 36 -24
  50 -12 96 80 43 86 49 119 24 129 -32 12 -54 5 -77 -26z"/>
  <path d="M1624 1088 c-75 -90 -86 -198 -18 -198 26 0 37 13 53 60 6 19 23 52
  36 72 29 44 31 61 9 82 -24 25 -50 19 -80 -16z"/>
  <path d="M1093 868 c-29 -32 -63 -99 -69 -140 -12 -72 75 -91 91 -20 3 17 19
  51 36 76 16 26 29 55 29 64 0 44 -54 56 -87 20z"/>
  <path d="M1396 699 c-31 -37 -55 -81 -67 -123 -11 -38 11 -76 45 -76 20 0 31
  15 69 92 43 86 45 94 31 115 -20 32 -47 29 -78 -8z"/>
</g>
</svg>
