<svg viewBox="0 0 43 43" xmlns="http://www.w3.org/2000/svg">
<g stroke="inherit" fill="none">
<path d="M24.7682 16.426C25.4562 13.76 27.3482 11.61 29.8422 10.578V10.406C29.2402 10.234 28.6382 10.234 27.9502 10.234C24.0802 10.234 20.8122 12.728 19.6082 16.168" stroke-width="1.5" stroke-miterlimit="10"/>
<path d="M19.522 6.88001C19.436 6.53601 19.436 6.19201 19.436 5.84801C19.436 3.95601 20.21 2.23601 21.5 1.03201C22.79 2.23601 23.564 3.95601 23.564 5.84801C23.564 6.19201 23.564 6.53601 23.478 6.88001" stroke-width="1.5" stroke-miterlimit="10"/>
<path d="M25.7142 10.492C26.5742 8.342 28.2942 6.622 30.4442 5.676V5.504C29.8422 5.332 29.2402 5.332 28.5522 5.332C23.4782 5.332 19.4362 9.546 19.7802 14.62C19.7802 14.964 19.8662 15.222 19.8662 15.566" stroke-width="1.5" stroke-miterlimit="10"/>
<path d="M18.2322 16.426C17.5442 13.76 15.6522 11.61 13.1582 10.578V10.406C13.7602 10.234 14.3622 10.234 15.0502 10.234C16.9422 10.234 18.7482 10.836 20.1242 11.868" stroke-width="1.5" stroke-miterlimit="10"/>
<path d="M17.2862 10.492C16.4262 8.342 14.7062 6.622 12.5562 5.676V5.504C13.1582 5.332 13.7602 5.332 14.4482 5.332C17.3722 5.332 19.9522 6.708 21.5002 8.944" stroke-width="1.5" stroke-miterlimit="10"/>
<path d="M21.5001 41.968C27.3481 41.968 32.0781 37.238 32.0781 31.39V26.574C32.0781 20.726 27.3481 15.996 21.5001 15.996C15.6521 15.996 10.9221 20.726 10.9221 26.574V31.39C10.9221 37.152 15.6521 41.968 21.5001 41.968Z" stroke-width="1.5" stroke-miterlimit="10"/>
<path d="M32.0782 27.606C25.9722 25.8 20.7262 21.93 17.2002 16.77" stroke-width="1.5" stroke-miterlimit="10"/>
<path d="M28.8101 39.044C21.8441 38.528 15.5661 35.604 10.9221 30.96" stroke-width="1.5" stroke-miterlimit="10"/>
<path d="M10.9221 27.606C17.0281 25.8 22.2741 21.93 25.8001 16.77" stroke-width="1.5" stroke-miterlimit="10"/>
<path d="M14.1902 39.044C21.1562 38.528 27.4342 35.604 32.0782 30.96" stroke-width="1.5" stroke-miterlimit="10"/>
<path d="M31.82 33.712C23.822 32.68 16.856 28.208 12.384 21.93" stroke-width="1.5" stroke-miterlimit="10"/>
<path d="M11.1802 33.712C19.1782 32.68 26.1442 28.208 30.6162 21.93" stroke-width="1.5" stroke-miterlimit="10"/>
</g>
</svg>
