<?xml version="1.0" encoding="utf-8"?><svg version="1.1" id="Layer_1" xmlns="http://www.w3.org/2000/svg" xmlns:xlink="http://www.w3.org/1999/xlink" x="0px" y="0px" viewBox="0 0 122.88 107.85" style="enable-background:new 0 0 122.88 107.85" xml:space="preserve"><g><path d="M7.36,107.31c-0.64,0.69-1.73,0.73-2.42,0.09c-0.69-0.64-0.73-1.73-0.09-2.42c1.93-2.08,4.19-4.27,6.72-6.55 c2.49-2.25,5.29-4.62,8.33-7.08c0.73-0.6,1.81-0.49,2.41,0.25c0.6,0.73,0.49,1.81-0.25,2.41c-2.94,2.38-5.69,4.72-8.2,6.98 C11.4,103.2,9.21,105.32,7.36,107.31L7.36,107.31z M54.12,55.98c3.49,0,6.32,2.83,6.32,6.32c0,3.49-2.83,6.32-6.32,6.32 c-3.49,0-6.32-2.83-6.32-6.32C47.8,58.81,50.63,55.98,54.12,55.98L54.12,55.98z M57.34,75.98c4.75,15.11,23.6,22.2,44.29,17.74 c-13.1-11.68,4.72-29.73-34.1-34.05c18.76,1.18,30.24-12.53,32.74-29.5c-11,8.06-36.41-4.11-40.93,21.27 c6.54-24.26-0.45-39.98-21.79-42.1c7.2,17.04-8.87,24.97,7.96,43.66c-18.93-18.55-25.71-2.94-44.49,2.39 c11.4,13.77,28.16,16.9,41.02,9.68c-16.67,11.54-16.49,25.98-9.24,41.65c4.49-5.53,10.36-9.69,17.8-12.26 C57.07,90.4,59.75,84.46,57.34,75.98L57.34,75.98z M105.07,20.95c-0.36,0.87-1.36,1.29-2.23,0.93c-0.87-0.36-1.29-1.36-0.93-2.23 c1.16-2.82,2.06-5.74,2.72-8.75c0.66-3.02,1.09-6.12,1.31-9.31c0.06-0.94,0.88-1.66,1.82-1.6c0.94,0.06,1.66,0.88,1.6,1.82 c-0.24,3.37-0.68,6.63-1.38,9.8C107.28,14.81,106.33,17.91,105.07,20.95L105.07,20.95z M2.62,96.11c-0.8,0.5-1.86,0.26-2.36-0.54 c-0.5-0.8-0.26-1.86,0.54-2.36c3.11-1.95,6.05-3.81,8.8-5.56c2.79-1.78,5.68-3.64,8.67-5.57c0.79-0.51,1.85-0.29,2.37,0.5 c0.51,0.79,0.29,1.85-0.5,2.37c-2.75,1.79-5.66,3.65-8.69,5.59C8.35,92.5,5.42,94.36,2.62,96.11L2.62,96.11z M96.43,20.35 c-0.2,0.93-1.11,1.52-2.03,1.32c-0.93-0.2-1.52-1.11-1.32-2.03c0.8-3.76,1.36-7.73,1.1-10.81c-0.22-2.49-0.97-4.31-2.63-4.6 c-0.55-0.09-1.12-0.02-1.6,0.19c-0.28,0.13-0.53,0.31-0.72,0.53c-0.17,0.21-0.29,0.47-0.35,0.77c-0.09,0.51,0.01,1.15,0.37,1.93 c0.39,0.86,0.01,1.87-0.85,2.27c-0.86,0.39-1.87,0.01-2.27-0.85c-0.67-1.47-0.83-2.79-0.63-3.93c0.16-0.92,0.54-1.71,1.08-2.37 c0.53-0.64,1.2-1.13,1.94-1.47c1.1-0.5,2.38-0.67,3.6-0.46c3.58,0.62,5.12,3.62,5.47,7.68C97.9,11.99,97.3,16.3,96.43,20.35 L96.43,20.35z M111.01,32.64c-0.78,0.53-1.84,0.33-2.37-0.46c-0.53-0.78-0.33-1.84,0.46-2.37l1.58-1.08 c0.67-0.46,1.16-0.8,1.48-1.02c2.06-1.43,3.8-2.68,5.16-3.72c1.27-0.97,2.14-1.72,2.55-2.2c0.61-0.72,1.7-0.8,2.41-0.19 c0.72,0.61,0.8,1.7,0.19,2.41c-0.57,0.67-1.62,1.58-3.07,2.69c-1.37,1.05-3.15,2.33-5.3,3.81c-0.64,0.44-1.14,0.79-1.49,1.03 L111.01,32.64L111.01,32.64z"/></g></svg>