<?xml version="1.0" encoding="UTF-8"?>
<svg fill="currentColor" width="1200pt" height="1200pt" version="1.1" viewBox="0 0 1200 1200" xmlns="http://www.w3.org/2000/svg">
 <path d="m600 543.75c-51.703 0-93.75 42.047-93.75 93.75s42.047 93.75 93.75 93.75 93.75-42.047 93.75-93.75-42.047-93.75-93.75-93.75zm0 150c-31.008 0-56.25-25.242-56.25-56.25s25.242-56.25 56.25-56.25 56.25 25.242 56.25 56.25-25.242 56.25-56.25 56.25z"/>
 <path d="m1106.2 412.5c-51.492 0-118.69 17.648-205.15 53.836-15.609-6.2578-32.156-10.641-49.5-13.078 86.438-40.242 184.41-78.258 253.71-78.258h0.84375c24.258 0.11719 52.898 23.18 61.852 32.039 5.7656 5.7422 14.578 7.1016 21.82 3.375 7.2422-3.7266 11.227-11.719 9.8906-19.734-2.1797-13.125-23.391-128.16-93.492-128.16-94.055 0-225.84 57.094-393.87 144.3-1.6172-51.938-21.352-122.65-101.67-178.45-6.4453-4.4766-14.953-4.4766-21.398 0-84.141 58.477-101.79 133.27-101.79 185.74 0 22.078 3.0469 42.023 6.7969 58.195-17.484-6.4453-39.727-13.172-64.641-17.32-79.828-13.312-148.69 6.3281-199.15 56.789-5.4141 5.4141-6.9844 13.594-3.9844 20.648 15.773 36.773 38.18 66.562 62.719 90.516-83.625 35.016-147.47 52.102-194.53 52.102h-0.89063c-24.258-0.11719-52.898-23.18-61.852-32.039-5.7656-5.7422-14.578-7.1016-21.82-3.375-7.2422 3.7266-11.227 11.719-9.8906 19.734 2.1797 13.125 23.391 128.16 93.492 128.16s160.5-29.578 297.3-95.672c8.1562 3.75 15.75 6.9375 22.523 9.5625-6.3047 6.5625-13.266 14.531-20.32 23.836-138.47 68.039-233.46 99.797-298.52 99.797h-0.91406c-24.258-0.11719-52.898-23.18-61.852-32.039-5.7656-5.7422-14.578-7.1016-21.82-3.375-7.2422 3.7266-11.227 11.719-9.8906 19.734 2.1797 13.125 23.391 128.16 93.492 128.16 59.695 0 139.27-23.273 248.77-72.891-1.1484 29.133 2.7422 61.758 14.695 97.57 2.7656 8.3203 10.969 13.594 19.664 12.727 103.22-10.312 163.24-59.062 195.42-98.156 11.883-14.414 20.93-28.594 27.703-41.086 6.7969 12.492 15.844 26.672 27.703 41.086 32.18 39.07 92.203 87.82 195.42 98.156 0.63281 0.070312 1.2656 0.09375 1.875 0.09375 7.9922 0 15.211-5.1094 17.766-12.82 31.266-93.797 7.4766-165.89-17.977-209.86-12.539-21.656-26.625-38.695-38.391-50.93 45.328-17.578 127.78-59.555 174.8-144.09 58.898-21.422 107.34-32.297 144.09-32.297h0.84375c24.258 0.11719 52.898 23.18 61.852 32.039 3.6094 3.5859 8.3906 5.4609 13.242 5.4609 2.9297 0 5.8594-0.67969 8.6016-2.0859 7.2422-3.7266 11.227-11.719 9.8906-19.734-2.1797-13.125-23.391-128.18-93.492-128.18zm42.773-64.125c-12.891-6.1875-27.539-10.805-42.68-10.875h-1.0781c-76.641 0-183.98 37.031-347.51 119.84-19.805 4.1016-37.57 9.6094-52.055 14.953 1.5469-6.6562 2.9531-13.992 4.1016-21.82 140.37-73.641 296.58-150.45 396.45-150.45 18.047 0 32.719 23.039 42.773 48.375zm-1055.3 401.62c-18.047 0-32.719-23.039-42.773-48.375 12.891 6.1875 27.539 10.805 42.68 10.875h1.0078c55.383 0 129.52-20.414 226.29-62.367 9.7266 7.3359 19.453 13.922 28.992 19.758-81.094 38.086-183.61 80.109-256.22 80.109zm0 150c-18.047 0-32.719-23.039-42.773-48.375 12.891 6.1875 27.539 10.805 42.68 10.875 62.602 0.21094 148.22-25.312 266.72-80.039-4.7344 11.578-8.9297 24.328-12.094 38.203-115.59 54.094-196.64 79.336-254.53 79.336zm651.7-224.44c-7.0781 1.7578-12.469 7.5-13.852 14.648-1.3828 7.1719 1.5469 14.484 7.4531 18.75 0.30469 0.21094 30.703 22.477 54.047 63.422 28.383 49.805 34.594 104.7 18.539 163.31-64.805-9.4453-116.53-36.82-153.89-81.492-30.305-36.211-39.492-70.992-39.562-71.297-2.0859-8.3203-9.5625-14.133-18.141-14.18h-0.070313c-8.5547 0-16.031 5.8125-18.164 14.109-0.09375 0.35156-9.2812 35.133-39.586 71.344-37.359 44.672-89.086 72.047-153.89 81.492-16.078-58.617-9.8438-113.51 18.539-163.31 23.344-40.969 53.742-63.211 54-63.398 5.9531-4.2422 8.8594-11.555 7.5234-18.727-1.3594-7.1719-6.75-12.914-13.852-14.719-1.3594-0.35156-132.56-34.711-188.11-146.11 40.688-35.25 93.094-47.93 155.98-37.688 52.617 8.5781 93.07 30.656 93.445 30.867 7.1016 3.9609 15.938 2.8359 21.891-2.6953 5.9531-5.5547 7.6172-14.32 4.1719-21.68-0.16406-0.375-17.273-37.5-16.969-85.547 0.39844-58.594 25.617-107.55 75-145.73 49.383 38.18 74.602 87.141 75 145.73 0.32812 48.047-16.781 85.172-16.945 85.5-3.4922 7.3594-1.8281 16.125 4.125 21.703 5.9531 5.5781 14.812 6.6797 21.938 2.7188 1.5234-0.84375 148.15-80.578 249.42 6.8203-55.547 111.4-186.73 145.76-188.09 146.11zm360.89-188.06c-36.797-0.16406-81.117 8.5547-134.91 26.508-0.58594-0.79687-1.2188-1.5703-1.9219-2.2734-8.1797-8.1797-16.875-15.562-25.992-22.102 68.227-26.602 121.73-39.633 162.75-39.633 18.047 0 32.719 23.039 42.773 48.375-12.891-6.1875-27.539-10.805-42.68-10.875z"/>
 <path d="m618.75 637.5c0 10.355-8.3945 18.75-18.75 18.75s-18.75-8.3945-18.75-18.75 8.3945-18.75 18.75-18.75 18.75 8.3945 18.75 18.75"/>
</svg>
