<?xml version="1.0" encoding="utf-8"?>
<!-- Generator: Adobe Illustrator 19.1.0, SVG Export Plug-In . SVG Version: 6.00 Build 0)  -->
<svg version="1.1" id="Layer_1" xmlns="http://www.w3.org/2000/svg" xmlns:xlink="http://www.w3.org/1999/xlink" x="0px" y="0px"
	 viewBox="0 0 50 50" style="enable-background:new 0 0 50 50;" xml:space="preserve">
<g fill="none" stroke="currentColor" stroke-width="2.5" stroke-miterlimit="10">
	<g>
		<line x1="44.8" y1="44.8" x2="17" y2="17"/>
		<path d="M15.6,7.1c3.5,3.5,3.8,7.5,1.4,9.9s-6.4,2-9.9-1.4C4.5,13,4.3,8.1,4.4,5.7C4.4,5,5,4.4,5.7,4.4
			C8.1,4.3,13,4.5,15.6,7.1z"/>
		<path d="M29.6,33.7c4.9,0,8,2.7,8,6c0,3.3-3.1,6-8,6c-3.6,0-7.3-3.3-8.9-5c-0.5-0.6-0.5-1.4,0-1.9
			C22.3,37,25.9,33.7,29.6,33.7z"/>
		<path d="M33.7,29.6c0,4.9,2.7,8,6,8c3.3,0,6-3.1,6-8c0-3.6-3.3-7.3-5-8.9c-0.6-0.5-1.4-0.5-1.9,0
			C37,22.3,33.7,25.9,33.7,29.6z"/>
	</g>
	<path d="M21.7,37.7c-3.6,0-7.3-3.3-8.9-5c-0.5-0.6-0.5-1.4,0-1.9c1.6-1.7,5.3-5,8.9-5c4.9,0,8,2.7,8,6
		c0,0.7-0.1,1.4-0.4,2"/>
	<path d="M37.7,21.7c0-3.6-3.3-7.3-5-8.9c-0.6-0.5-1.4-0.5-1.9,0c-1.7,1.6-5,5.3-5,8.9c0,4.9,2.7,8,6,8
		c0.7,0,1.4-0.1,2-0.4"/>
	<path d="M13.3,30.2c-3.3-0.5-6.5-3.4-8-4.9c-0.5-0.6-0.5-1.4,0-1.9c1.6-1.7,5.3-5,8.9-5c4.9,0,8,2.7,8,6
		c0,0.5-0.1,1-0.2,1.5"/>
	<path d="M30.2,13.3c-0.5-3.3-3.4-6.5-4.9-8c-0.6-0.5-1.4-0.5-1.9,0c-1.7,1.6-5,5.3-5,8.9c0,4.9,2.7,8,6,8
		c0.5,0,1-0.1,1.5-0.2"/>
</g>
</svg>
