<?xml version="1.0" encoding="utf-8"?><svg xmlns="http://www.w3.org/2000/svg" xmlns:xlink="http://www.w3.org/1999/xlink" width="88.484" height="60.422" viewBox="0 0 88.484 60.422"><defs><style>.a{fill:none;}.b{clip-path:url(#a);}.c{fill:#7eb730;}.d{fill:#2991c8;}.e{fill:#80b427;}.f{fill:#2991cd;}</style><clipPath id="a"><rect class="a" width="88.484" height="60.422"/></clipPath></defs><g transform="translate(-209.632 560.749)"><g class="b" transform="translate(209.632 -560.749)"><path class="c" d="M360.1-492.187a43.594,43.594,0,0,0,12.762,2.94,18.416,18.416,0,0,0,8.774-1.491c4.419-2.079,6.875-6.36,7.9-10.972a30.11,30.11,0,0,0,.141-11.529c-.066-.377-.141-.753-.227-1.125-.284-1.222-2.209-.878-1.922.353a27.279,27.279,0,0,1,.611,4.451q.01.166.019.332a1.25,1.25,0,0,1,.006.131q.016.374.022.749.014.748-.008,1.495a28.587,28.587,0,0,1-.258,3.129q-.111.8-.276,1.59-.02.1-.041.19c-.049.226.052-.228,0,0-.029.127-.06.253-.091.38-.068.274-.142.546-.22.817a17.5,17.5,0,0,1-1.186,3.027c-.029.058-.06.116-.09.173.128-.246.022-.043,0,.005-.062.114-.127.227-.192.34-.141.244-.292.483-.448.718a13,13,0,0,1-.989,1.3c-.047.054-.334.369-.139.159-.09.1-.183.192-.276.285-.2.205-.416.4-.634.591s-.416.347-.632.51c-.109.083-.221.163-.333.242-.068.048-.472.313-.252.173a12.427,12.427,0,0,1-1.582.846c-.274.123-.554.235-.836.339-.145.053-.291.1-.437.152.231-.077-.021.006-.057.017-.1.031-.2.06-.3.089a16.1,16.1,0,0,1-2.04.43c-.354.052-.709.092-1.065.124-.184.017-.369.029-.554.04-.016,0-.326.016-.116.007-.128.005-.256.009-.384.012a35.13,35.13,0,0,1-11.763-2.08c-.736-.242-1.467-.5-2.194-.768a.978.978,0,0,0-.682,1.832" transform="translate(-325.401 525.502)"/><path class="c" d="M384.378-514.535a12.97,12.97,0,0,1-3.551,4.908,17.468,17.468,0,0,1-4.977,2.8c-3.915,1.545-8.1,2.363-11.965,4.092a14.279,14.279,0,0,0-4.71,3.051A11.958,11.958,0,0,0,356.522-495c-1.076,3.462-.971,7.144-.969,10.726a1,1,0,0,0,.888,1.058.979.979,0,0,0,1.058-.888c0-4.074-.21-8.431,1.624-12.168a9.3,9.3,0,0,1,4.283-4.072,37.071,37.071,0,0,1,5.944-2.352c3.267-1.031,6.65-1.851,9.706-3.442a15.3,15.3,0,0,0,7.153-7.721c.492-1.164-1.343-1.837-1.832-.682" transform="translate(-322.364 525.509)"/><path class="c" d="M416.873-468.689a11.056,11.056,0,0,0,4.906,7.9,13.987,13.987,0,0,0,7.56,1.878,1,1,0,0,0,1.058-.888.979.979,0,0,0-.888-1.058,16.076,16.076,0,0,1-3.354-.289l-.2-.041q.138.032-.039-.01c-.165-.039-.328-.083-.491-.128-.3-.082-.587-.178-.875-.282a9.235,9.235,0,0,1-1.554-.722,8.12,8.12,0,0,1-2.669-2.495,10.347,10.347,0,0,1-1.534-4.219.978.978,0,0,0-1.923.353" transform="translate(-369.73 490.498)"/><path class="c" d="M381.509-459.389c.9,3.1-.367,6.106-1.97,8.731-.655,1.072.938,2.205,1.6,1.13,1.858-3.043,3.345-6.615,2.3-10.214a1,1,0,0,0-1.138-.785.979.979,0,0,0-.785,1.138" transform="translate(-340.778 483.334)"/><path class="c" d="M445.621-475.913a8.535,8.535,0,0,0,5.259,2.9,5.927,5.927,0,0,0,5.013-2.128.978.978,0,0,0-.233-1.362,1,1,0,0,0-1.362.233,3.92,3.92,0,0,1-3.374,1.3,6.42,6.42,0,0,1-3.805-2.2c-.857-.919-2.358.333-1.5,1.256" transform="translate(-391.752 496.425)"/><path class="d" d="M442.151-528.1c-.919-3.165.834-5.865,2.424-8.452.658-1.07-.935-2.2-1.595-1.13a28.949,28.949,0,0,0-2.327,4.206,8.788,8.788,0,0,0-.425,5.729,1,1,0,0,0,1.138.785.979.979,0,0,0,.785-1.138" transform="translate(-387.552 543.265)"/><path class="d" d="M354.424-485.256a7.821,7.821,0,0,0-5.189-2.892,6.4,6.4,0,0,0-5.168,2.4.979.979,0,0,0,.233,1.363,1,1,0,0,0,1.363-.233,4.364,4.364,0,0,1,3.53-1.576A5.8,5.8,0,0,1,352.926-484c.832.946,2.331-.308,1.5-1.256" transform="translate(-313.347 504.67)"/><path class="d" d="M372.756-542.42a43.447,43.447,0,0,0-12.736-2.933,18.3,18.3,0,0,0-8.746,1.5c-4.408,2.086-6.842,6.377-7.846,10.985a30.469,30.469,0,0,0-.115,11.558c.068.39.145.779.235,1.165.284,1.221,2.209.877,1.923-.354a27.823,27.823,0,0,1-.62-4.449q-.011-.166-.02-.332c0-.08-.023-.478-.008-.131q-.017-.375-.025-.749-.017-.748,0-1.5a28.855,28.855,0,0,1,.242-3.132q.106-.8.266-1.592.038-.191.081-.381c.049-.227-.052.228,0,0,.015-.063.03-.126.045-.19.066-.274.138-.547.215-.818a17.614,17.614,0,0,1,1.163-3.035c.032-.065.232-.443.091-.18.061-.114.125-.228.189-.341.139-.245.287-.484.441-.72a12.958,12.958,0,0,1,.976-1.305c.085-.1.172-.2.26-.3-.193.213.1-.1.147-.152.2-.206.411-.4.627-.595a11.865,11.865,0,0,1,1.353-1.03c-.226.149.144-.088.2-.124.121-.073.245-.143.369-.211.274-.152.556-.291.841-.422s.549-.237.828-.343c.143-.054.288-.1.433-.154.248-.084-.2.061.055-.019.1-.032.2-.062.3-.091a15.786,15.786,0,0,1,2.023-.44c.351-.055.7-.1,1.057-.129.183-.017.367-.031.55-.043l.281-.016c-.2.01.178-.006.214-.007a34.632,34.632,0,0,1,11.69,2.024c.783.255,1.56.529,2.332.814a.978.978,0,0,0,.682-1.832" transform="translate(-312.527 548.879)"/><path class="d" d="M348.228-531.884a13.057,13.057,0,0,1,3.452-4.985,16.142,16.142,0,0,1,4.85-2.785c3.8-1.495,7.912-2.223,11.725-3.806,3.219-1.337,6.265-3.27,7.787-6.524,1.392-2.974,1.125-6.464.964-9.647a.978.978,0,0,0-1.138-.785,1,1,0,0,0-.785,1.138,29.156,29.156,0,0,1-.139,6.226,8.55,8.55,0,0,1-2.5,4.809,17.215,17.215,0,0,1-5.738,3.3c-1.911.748-3.886,1.3-5.858,1.861a33.342,33.342,0,0,0-8.363,3.225,14.945,14.945,0,0,0-6.09,7.289c-.474,1.171,1.36,1.846,1.832.682" transform="translate(-315.232 560.502)"/><path class="d" d="M373.841-513.787a12.726,12.726,0,0,0-2.124-5.028,9.178,9.178,0,0,0-3.406-2.751,16.651,16.651,0,0,0-7.64-1.2,1,1,0,0,0-1.059.888.978.978,0,0,0,.888,1.059,29.211,29.211,0,0,1,3.379.1,10.416,10.416,0,0,1,3.393.826,6.737,6.737,0,0,1,1.491.865,6.432,6.432,0,0,1,1.32,1.3,10.234,10.234,0,0,1,1.834,4.3.978.978,0,0,0,1.923-.353" transform="translate(-325.5 531.414)"/><path class="e" d="M218.185-372.007a16.24,16.24,0,0,1,.133-2.626h-.053a4.174,4.174,0,0,1-4.092,2.865c-2.175,0-4.54-1.167-4.54-3.263,0-2.891,3.433-4.722,8.42-4.722v-.981c0-1.83-.716-2.812-2.892-2.812a8.312,8.312,0,0,0-3.979,1.088l-.239-2.043a12.094,12.094,0,0,1,4.616-.955c3.793,0,4.881,1.777,4.881,4.4l.1,5.252c0,1.247-.071,2.653-.045,3.793Zm-.133-6.075c-4.589,0-5.6,1.406-5.6,2.6a1.809,1.809,0,0,0,2.016,1.83c2.149,0,3.581-2.122,3.581-4.191Z" transform="translate(-209.632 425.322)"/><path class="e" d="M275.771-384.3c-1.976.015-4.109,1.6-4.45,2.987h-.007a17.786,17.786,0,0,0,.265-2.938l.005-.052h-8.573c-3.687,0-5.783,2.308-5.783,5.093a4.074,4.074,0,0,0,1.937,3.767,2.431,2.431,0,0,0-1.486,2.2,2.1,2.1,0,0,0,1.3,1.936,3.938,3.938,0,0,0-2.175,3.422c0,2.52,2.148,3.873,5.544,3.873,4.138,0,7-2.175,7-4.961,0-2.388-1.592-3.767-4.456-3.767h-2.44c-1.592,0-2.255-.292-2.255-1.035a1.2,1.2,0,0,1,.849-1.088,10.519,10.519,0,0,0,1.671.159c3.767,0,5.73-2.069,5.73-4.907a3.18,3.18,0,0,0-1.114-2.573h1.923l.013.305v10.76h2.387v-5.306l-.018-.274a10.5,10.5,0,0,1,.393-2.452,5.03,5.03,0,0,1,3.737-3.28v11.312h2.387V-384.3ZM260.863-370.75h3.369c1.857,0,2.759.8,2.759,2.069,0,1.618-1.565,2.759-4.271,2.759-2.069,0-3.554-.849-3.554-2.414a2.794,2.794,0,0,1,1.7-2.414m1.963-5.677c-2.069,0-3.263-1.061-3.263-3.024a3.029,3.029,0,0,1,3.343-3.077,2.862,2.862,0,0,1,3.183,3.077c0,1.937-1.273,3.024-3.263,3.024" transform="translate(-246.076 424.433)"/><path class="e" d="M340.043-404.4a1.591,1.591,0,0,0,1.592-1.565,1.552,1.552,0,0,0-1.592-1.539,1.569,1.569,0,0,0-1.591,1.539,1.574,1.574,0,0,0,1.591,1.565" transform="translate(-309.155 442.354)"/><path class="f" d="M357.591-382.549a4.857,4.857,0,0,1,4.751-2.907c3.024,0,3.979,1.884,3.979,4.218v9.231h-2.387v-8.515c0-1.857-.5-2.945-2.255-2.945-2.175,0-3.74,2.2-3.74,5.12v6.34h-2.387v-13.184l1.938,0" transform="translate(-322.365 425.322)"/><path class="f" d="M409.921-372.007a16.244,16.244,0,0,1,.133-2.626H410a4.7,4.7,0,0,1-4.483,2.865c-2.175,0-3.661-1.167-3.661-3.263,0-2.891,2.945-4.722,7.932-4.722v-.981c0-1.83-.716-2.812-2.892-2.812a8.312,8.312,0,0,0-3.979,1.088l-.239-2.043a12.093,12.093,0,0,1,4.616-.955c3.793,0,4.881,1.777,4.881,4.4v5.252c0,1.247.026,2.653.053,3.793Zm-.133-6.075c-4.589,0-5.6,1.406-5.6,2.6a1.809,1.809,0,0,0,2.016,1.83c2.148,0,3.581-2.122,3.581-4.191Z" transform="translate(-358.14 425.322)"/><path class="f" d="M446.249-407.976l.009,5.387h3.687v1.857h-3.687v6.738c0,2.175.4,2.759,1.883,2.759a7.789,7.789,0,0,0,1.8-.239v2.016a12.925,12.925,0,0,1-2.547.265c-2.706,0-3.528-1.114-3.528-3.952v-7.587h-2.706v-1.857h2.706v-4.426l.059-.018a17.141,17.141,0,0,0,2.039-.819Z" transform="translate(-388.508 442.721)"/><path class="f" d="M487.39-371.1a19.329,19.329,0,0,1,.212-2.759l-.053-.027a4.822,4.822,0,0,1-4.642,3.05c-3.024,0-3.953-1.883-3.953-4.218v-9.232h2.361v8.515c0,1.857.531,2.945,2.255,2.945,2.175,0,3.767-2.2,3.767-5.12v-6.34H489.7V-371.1Z" transform="translate(-417.703 424.421)"/><rect class="e" width="3.795" height="1.796" transform="translate(8.42 45.57)"/><path class="f" d="M545.123-380.2v.982c-4.987,0-7.931,1.83-7.931,4.722,0,2.1,1.485,3.263,3.661,3.263a4.7,4.7,0,0,0,4.483-2.865h.053a16.234,16.234,0,0,0-.133,2.626h2.308c-.027-1.141-.053-2.547-.053-3.794v-5.252c0-2.626-2.667-4.231-6.461-4.231h-.008a7.462,7.462,0,0,0-1.911.137l-.062.011c-2.337.459-4.068,1.622-4.489,3h-.053a17.58,17.58,0,0,0,.291-3.058l.005-.075h-2.313v13.188H534.9v-5.306a10.342,10.342,0,0,1,.394-2.583,5.031,5.031,0,0,1,3.8-3.295l0-.007.06,0a7.453,7.453,0,0,1,1.911-.137h.008q.141,0,.28,0s3.764.021,3.764,2.674m0,2.891c0,2.069-1.433,4.191-3.581,4.191a1.809,1.809,0,0,1-2.016-1.83c0-1.194,1.008-2.6,5.6-2.6Z" transform="translate(-459.079 424.784)"/></g></g></svg>