<?xml version="1.0" encoding="utf-8"?>
<!-- Generator: Adobe Illustrator 19.1.0, SVG Export Plug-In . SVG Version: 6.00 Build 0)  -->
<svg version="1.1" id="Layer_1" xmlns="http://www.w3.org/2000/svg" xmlns:xlink="http://www.w3.org/1999/xlink" x="0px" y="0px"
	 viewBox="0 0 68 50" style="enable-background:new 0 0 68 50;" xml:space="preserve">
<g fill="none" stroke="inherit" stroke-width="2.5" stroke-miterlimit="10">
	<g>
		<polygon points="49.7,27 49.7,18.6 54.6,18.6 57.4,21.4 57.4,27 	"/>
	</g>
	<polyline points="8.1,39.4 1.4,39.4 1.4,1.2 44.6,1.2 44.6,39.4 19.3,39.4 "/>
	<line x1="49.7" y1="39.4" x2="44.6" y2="39.4"/>
	<path d="M13.7,48.7c-3.5,0-6.3-2.8-6.3-6.3s2.8-6.3,6.3-6.3c3.5,0,6.3,2.8,6.3,6.3S17.2,48.7,13.7,48.7z"/>
	<path d="M55.3,48.7c-3.5,0-6.3-2.8-6.3-6.3s2.8-6.3,6.3-6.3s6.3,2.8,6.3,6.3S58.8,48.7,55.3,48.7z"/>
	<polyline points="44.6,13.5 57.2,13.5 66.6,23 66.6,39.4 60.8,39.4 "/>
</g>
</svg>
