<?xml version="1.0" encoding="utf-8"?>
<!-- Generator: Adobe Illustrator 19.1.0, SVG Export Plug-In . SVG Version: 6.00 Build 0)  -->
<svg version="1.1" id="Layer_1" xmlns="http://www.w3.org/2000/svg" xmlns:xlink="http://www.w3.org/1999/xlink" x="0px" y="0px"
	 viewBox="0 0 50 50" style="enable-background:new 0 0 50 50;" xml:space="preserve">
<style type="text/css">
	.st0{fill:none;stroke:#040506;stroke-width:2.5;stroke-miterlimit:10;}
</style>
<g>
	<circle class="st0" cx="25" cy="11.8" r="5.1"/>
	<path class="st0" d="M39.2,29L31,20.8c-0.5-0.5-1.3-0.8-2-0.8l0,0h-8.1l0,0c-0.7,0-1.4,0.3-2,0.8L10.8,29c-0.9,0.9-0.9,2.4,0,3.3
		c0.9,0.9,2.4,0.9,3.3,0l4-4v17.9c0,1.4,1.1,2.6,2.6,2.6c1.4,0,2.6-1.1,2.6-2.6v-9.3h3.5v9.3c0,1.4,1.1,2.6,2.6,2.6h0
		c1.4,0,2.6-1.1,2.6-2.6V28.3l4,4c0.9,0.9,2.4,0.9,3.3,0C40.1,31.4,40.1,29.9,39.2,29z"/>
</g>
</svg>
