<svg width="182mm" height="46mm" fill="none" stroke="#000" stroke-linecap="round" stroke-linejoin="round" version="1.1" viewBox="0 0 182 46" xmlns="http://www.w3.org/2000/svg" xmlns:xlink="http://www.w3.org/1999/xlink"><g stroke-width=".35"><path d="m95.54 30.54c-.66-6.44 1.94-9.03 .19-15.32"/><path d="m90.04 30.54c-.66-6.44 1.94-9.03 .19-15.32"/><path d="m5.2 22.84h171.8" stroke-dasharray="37.5, 4, 2, 4"/></g><rect x="125.8" y="6.24" width="3.78" height="33.2"/><g id="b" transform="translate(7.94 .74)"><g id="d"><path id="q" d="m123.2 9.05-1.56 2.97-.06 10.2c0-2.56 .97-4.59 2.17-6.56h4.79-4.79c-2.7-2.63-1.87-4.01-.55-6.61h5.32"/><use transform="matrix(-1 0 0 1 257.1 0)" xlink:href="#q"/></g><use transform="matrix(1 0 0 -1 0 44.2)" xlink:href="#d"/></g><use transform="translate(13.88 .12)" xlink:href="#b"/><g id="a" transform="translate(7.94 .74)"><g id="c" transform="translate(.03 .02)"><path d="m163.3 14.38v7.61"/><path d="m87.77 14.38h29.97"/><path d="m112.1 14.38v7.61"/><path d="m149.2 14.38h14.11l2 2.07v5.53"/><g stroke-width=".35"><path d="m149.4 16.45h15.88"/><path d="m112.1 16.18h5.69"/></g></g><path d="m0.97 22.1 8.54-17.34v17.34-17.34l32.97 9.72v7.62-7.62h39.81"/></g><use transform="matrix(1 0 0 -1 3.849e-8 45.68)" xlink:href="#a"/></svg>