<?xml version="1.0" encoding="utf-8"?>
<!-- Generator: Adobe Illustrator 19.1.0, SVG Export Plug-In . SVG Version: 6.00 Build 0)  -->
<svg version="1.1" id="Layer_1" xmlns="http://www.w3.org/2000/svg" xmlns:xlink="http://www.w3.org/1999/xlink" x="0px" y="0px"
	 viewBox="0 0 68 50" style="enable-background:new 0 0 68 50;" xml:space="preserve">
<g fill="none" stroke="inherit" stroke-width="2.5" stroke-miterlimit="10">
	<g>
		<polyline points="37.6,7.7 43.3,7.7 43.3,12.9 40.5,12.9 	"/>
		<polyline points="37.6,42.3 43.3,42.3 43.3,37.1 40.5,37.1 	"/>
		<path d="M56.6,31.3H28.5l-19-1.5C7,29.6,5.1,27.5,5.1,25v0c0-2.5,1.9-4.6,4.4-4.8l19-1.5h28.2c3.5,0,6.3,2.8,6.3,6.3v0
			C62.9,28.5,60.1,31.3,56.6,31.3z"/>
		<path d="M8.2,20.5l-1.7-4.8c-0.5-1.3,0.5-2.7,1.9-2.7h3.4c0.6,0,1.3,0.3,1.6,0.8l4.3,5.8"/>
		<path d="M8.2,29.5l-1.7,4.8c-0.5,1.3,0.5,2.7,1.9,2.7h3.4c0.6,0,1.3-0.3,1.6-0.8l4.3-5.8"/>
	</g>
	<path d="M28.6,31.3L23.9,46c-0.5,1.6,0.7,3.2,2.3,3.2h6.2c0.9,0,1.7-0.5,2.1-1.2l9.3-16.6"/>
	<path d="M43.8,18.7L34.5,2.1c-0.4-0.8-1.2-1.2-2.1-1.2h-6.2c-1.6,0-2.8,1.6-2.3,3.2l4.7,14.6"/>
</g>
</svg>
