<svg width="27" height="27" viewBox="0 0 27 27" fill="none" xmlns="http://www.w3.org/2000/svg">
<g stroke="currentColor" fill="currentColor">
<circle fill="none" cx="13.5" cy="13.5" r="12" stroke-width="3"/>
<path d="M11.7962 15.918C11.7082 15.3167 11.7449 14.7813 11.9062 14.312C12.0675 13.828 12.2875 13.3953 12.5662 13.014C12.8595 12.618 13.1602 12.2587 13.4682 11.936C13.7762 11.5987 14.0329 11.276 14.2382 10.968C14.4582 10.6453 14.5682 10.3227 14.5682 10C14.5682 9.54533 14.4289 9.20067 14.1502 8.966C13.8862 8.73133 13.5342 8.614 13.0942 8.614C12.6835 8.614 12.3169 8.70933 11.9942 8.9C11.6862 9.09067 11.3855 9.33267 11.0922 9.626L9.3102 7.998C9.82354 7.39667 10.4395 6.91267 11.1582 6.546C11.8769 6.17933 12.6615 5.996 13.5122 5.996C14.3042 5.996 15.0082 6.128 15.6242 6.392C16.2549 6.656 16.7535 7.06667 17.1202 7.624C17.4869 8.18133 17.6702 8.89267 17.6702 9.758C17.6702 10.3007 17.5602 10.7847 17.3402 11.21C17.1202 11.6207 16.8489 12.002 16.5262 12.354C16.2035 12.706 15.8882 13.058 15.5802 13.41C15.2722 13.7473 15.0229 14.1213 14.8322 14.532C14.6415 14.928 14.5755 15.39 14.6342 15.918H11.7962ZM13.2042 21.264C12.6469 21.264 12.1849 21.0733 11.8182 20.692C11.4515 20.296 11.2682 19.812 11.2682 19.24C11.2682 18.6533 11.4515 18.1693 11.8182 17.788C12.1849 17.392 12.6469 17.194 13.2042 17.194C13.7615 17.194 14.2235 17.392 14.5902 17.788C14.9715 18.1693 15.1622 18.6533 15.1622 19.24C15.1622 19.812 14.9715 20.296 14.5902 20.692C14.2235 21.0733 13.7615 21.264 13.2042 21.264Z"/>
</g>
</svg>
