<?xml version="1.0" encoding="utf-8"?>
<!-- Generator: Adobe Illustrator 19.1.0, SVG Export Plug-In . SVG Version: 6.00 Build 0)  -->
<svg version="1.1" id="Layer_1" xmlns="http://www.w3.org/2000/svg" xmlns:xlink="http://www.w3.org/1999/xlink" x="0px" y="0px"
	 viewBox="0 0 50 50" style="enable-background:new 0 0 50 50;" xml:space="preserve">
<g fill="none" stroke="currentColor" stroke-width="2.5" stroke-miterlimit="10">
	<path d="M15.4,7.8H6.3c-2.8,0-5,2.2-5,5v36h19.1v-36C20.4,10,18.1,7.8,15.4,7.8z"/>
	<circle cx="36.9" cy="29.7" r="11.8"/>
	<line x1="21.1" y1="48.8" x2="50" y2="48.8"/>
	<line x1="36.9" y1="41.5" x2="36.9" y2="48.8"/>
	<line x1="42.1" y1="40.3" x2="46.2" y2="48.8"/>
	<line x1="31.8" y1="40.3" x2="27.6" y2="48.8"/>
	<line x1="25.1" y1="29.7" x2="48.8" y2="29.7"/>
	<path d="M20.4,12.8h11.4c2.8,0,5.1,2.3,5.1,5.1v0"/>
	<line x1="7.6" y1="7.8" x2="7.6" y2="43.6"/>
	<line x1="14" y1="7.8" x2="14" y2="43.6"/>
	<line x1="10.8" y1="7.8" x2="10.8" y2="2.5"/>
	<polyline points="4.4,7.8 4.4,2.5 17.2,2.5 17.2,7.8 	"/>
	<line x1="1.2" y1="43.6" x2="20.4" y2="43.6"/>
</g>
</svg>
