<?xml version="1.0" encoding="utf-8"?>
<!-- Generator: Adobe Illustrator 19.1.0, SVG Export Plug-In . SVG Version: 6.00 Build 0)  -->
<svg version="1.1" id="Layer_1" xmlns="http://www.w3.org/2000/svg" xmlns:xlink="http://www.w3.org/1999/xlink" x="0px" y="0px"
	 viewBox="0 0 52 50" style="enable-background:new 0 0 52 50;" xml:space="preserve">
<g fill="transparent" stroke="inherit" stroke-width="2.5" stroke-miterlimit="10">
	<line x1="25.9" y1="12.8" x2="25.9" y2="49.7"/>
	<line x1="32.2" y1="12.8" x2="38.4" y2="49.7"/>
	<line x1="38.4" y1="12.8" x2="50.9" y2="49.7"/>
	<line x1="44.7" y1="12.8" x2="50.9" y2="25.1"/>
	<line x1="19.7" y1="12.8" x2="13.4" y2="49.7"/>
	<line x1="13.4" y1="12.8" x2="0.9" y2="49.7"/>
	<line x1="7.2" y1="12.8" x2="0.9" y2="25.1"/>
	<path d="M0.9,6.8c5.8,0,6.3-4.4,13.5-4.4c6.5,0,8.9,3.9,16.6,3.9c2.8,0,4.2-1.3,9.5-1.3c4.5,0,7.8,1.9,10.3,1.9"/>
	<line x1="0.9" y1="12.8" x2="50.9" y2="12.8"/>
</g>
</svg>
