<?xml version="1.0" encoding="utf-8"?>
<!-- Generator: Adobe Illustrator 19.1.0, SVG Export Plug-In . SVG Version: 6.00 Build 0)  -->
<svg version="1.1" id="Layer_1" xmlns="http://www.w3.org/2000/svg" xmlns:xlink="http://www.w3.org/1999/xlink" x="0px" y="0px"
	 viewBox="0 0 50 50" style="enable-background:new 0 0 50 50;" xml:space="preserve">
<g fill="none" stroke="inherit" stroke-width="2.5" stroke-miterlimit="10">
	<polyline points="0,1.2 7.9,1.2 7.9,38.2 42.2,38.2 	"/>
	<polyline points="7.9,9.1 47.5,9.1 42.2,31.5 7.9,31.5 	"/>
	<line x1="17.2" y1="9.1" x2="17.2" y2="31.5"/>
	<line x1="26.4" y1="9.1" x2="26.4" y2="31.5"/>
	<line x1="35.7" y1="9.1" x2="35.7" y2="31.5"/>
	<line x1="45" y1="20.3" x2="7.9" y2="20.3"/>
	<path d="M15.9,48.8c-2.9,0-5.3-2.4-5.3-5.3s2.4-5.3,5.3-5.3s5.3,2.4,5.3,5.3S18.8,48.8,15.9,48.8z"/>
	<path d="M42.2,48.8c-2.9,0-5.3-2.4-5.3-5.3s2.4-5.3,5.3-5.3s5.3,2.4,5.3,5.3S45.1,48.8,42.2,48.8z"/>
</g>
</svg>
