<svg viewBox="0 0 26 26" fill="none" xmlns="http://www.w3.org/2000/svg">
<path d="M13 23C18.5228 23 23 18.5228 23 13C23 7.47715 18.5228 3 13 3C7.47715 3 3 7.47715 3 13C3 18.5228 7.47715 23 13 23Z" stroke="currentColor" stroke-width="2" stroke-miterlimit="10" stroke-linejoin="round"/>
<path d="M10.5371 22.7536C9.69968 20.192 11.9657 19.6994 11.2268 17.2364C10.7342 15.6108 8.96077 16.3989 6.49771 15.5615C4.47801 14.8719 4.67505 12.9999 6.54697 12.6058C8.41889 12.2118 9.40412 9.94575 9.25633 8.56644C9.01003 6.44821 11.9164 7.58121 13.0002 6.10338C14.0839 4.62555 14.0347 4.08368 13.9361 3.04919" stroke="currentColor" stroke-width="2" stroke-miterlimit="10" stroke-linejoin="round"/>
<path d="M19.6011 5.51233C18.9607 6.74386 17.4336 6.39903 16.2021 6.99016C14.9706 7.58129 15.0691 8.51726 14.9213 9.79804C14.8228 10.6355 13.6898 11.1281 13.3942 12.0148C13.0494 12.9015 13.0494 13.2463 13.2464 14.1823C13.4927 15.4138 15.3154 14.6256 15.9065 16.6453C16.4976 18.665 16.005 19.9458 16.9903 19.8966C18.7637 19.7488 19.3055 15.5616 19.7489 14.6256C20.1922 13.6897 20.9804 11.9163 22.9016 14.3793" stroke="currentColor" stroke-width="2" stroke-miterlimit="10" stroke-linejoin="round"/>
</svg>
